<svg width="19" height="11" viewBox="0 0 19 11" fill="none" xmlns="http://www.w3.org/2000/svg">
<path fill-rule="evenodd" clip-rule="evenodd" d="M9.50998 0C4.36398 0 0 5.379 0 5.379V5.582C0 5.582 4.34798 11 9.48798 11C14.633 11 18.998 5.621 18.998 5.621V5.418C18.998 5.418 14.65 0 9.50897 0M9.47198 8.866C7.73498 8.866 6.32599 7.392 6.32599 5.572C6.32599 3.752 7.73598 2.277 9.47198 2.277C11.214 2.277 12.622 3.751 12.622 5.571C12.622 7.391 11.214 8.866 9.47198 8.866ZM9.47198 4.043C8.67498 4.043 8.03098 4.719 8.03098 5.549C8.03098 6.386 8.67498 7.062 9.47098 7.062C10.269 7.062 10.918 6.386 10.918 5.549C10.918 4.719 10.268 4.043 9.47198 4.043Z" fill="#667788"/>
</svg>
