<svg width="43" height="27" viewBox="0 0 43 27" fill="none" xmlns="http://www.w3.org/2000/svg">
<path fill-rule="evenodd" clip-rule="evenodd" d="M21.25 0.75C13.754 0.75 7.915 5.44002 0.75 13.046C6.92 19.548 12.102 25.35 21.25 25.35C30.398 25.35 37.12 18.007 41.75 13.181C37.012 7.53503 30.287 0.75 21.25 0.75ZM21.25 21.455C16.566 21.455 12.76 17.683 12.76 13.05C12.76 8.41699 16.566 4.64502 21.25 4.64502C25.93 4.64502 29.74 8.41699 29.74 13.05C29.74 17.683 25.93 21.455 21.25 21.455ZM21.25 8.315C18.612 8.315 16.467 10.438 16.467 13.05C16.467 15.662 18.612 17.786 21.25 17.786C23.888 17.786 26.033 15.662 26.033 13.05C26.033 10.438 23.888 8.315 21.25 8.315Z" fill="#00E054" stroke="#00E054"/>
<path fill-rule="evenodd" clip-rule="evenodd" d="M0.75 13.046C6.92 19.548 12.102 25.35 21.25 25.35C30.398 25.35 37.12 18.007 41.75 13.181C37.012 7.53503 30.287 0.75 21.25 0.75C13.754 0.75 7.915 5.44002 0.75 13.046Z" stroke="#00E054" stroke-width="1.5" stroke-linecap="round" stroke-linejoin="round"/>
</svg>
