<svg width="8" height="15" viewBox="0 0 8 15" fill="none" xmlns="http://www.w3.org/2000/svg">
<path fill-rule="evenodd" clip-rule="evenodd" d="M4.25 1.985C4.25 1.78609 4.32901 1.59532 4.46967 1.45467C4.61032 1.31401 4.80109 1.235 5 1.235C5.19891 1.235 5.38968 1.31401 5.53033 1.45467C5.67099 1.59532 5.75 1.78609 5.75 1.985C5.75 2.18391 5.67099 2.37468 5.53033 2.51533C5.38968 2.65598 5.19891 2.735 5 2.735C4.80109 2.735 4.61032 2.65598 4.46967 2.51533C4.32901 2.37468 4.25 2.18391 4.25 1.985ZM8 4C8 1.79 6.21 0 4 0C1.79 0 2.3589e-07 1.79 2.3589e-07 4C-0.000334265 4.97451 0.355092 5.91562 0.999542 6.64661C1.64399 7.3776 2.53314 7.84819 3.5 7.97V14.5H4.5V7.97C5.46686 7.84819 6.35601 7.3776 7.00046 6.64661C7.64491 5.91562 8.00033 4.97451 8 4Z" fill="#667788"/>
</svg>
