<svg width="177" height="30" viewBox="0 0 177 30" fill="none" xmlns="http://www.w3.org/2000/svg">
<path fill-rule="evenodd" clip-rule="evenodd" d="M31.168 10.4817H20.219L16.95 0.67575C16.655 -0.22525 15.358 -0.22525 15.064 0.67575L11.797 10.4817H0.850037C0.0410367 10.5377 -0.359963 11.9247 0.420037 12.4787L9.10704 18.6797L5.78804 28.7177C5.48904 29.6187 6.53804 30.3657 7.31704 29.8077L16.007 23.6067L24.699 29.8067C25.478 30.3657 26.526 29.6187 26.227 28.7167L22.909 18.6797L31.596 12.4787C32.375 11.9247 31.977 10.5377 31.168 10.4817Z" fill="#334455"/>
<path fill-rule="evenodd" clip-rule="evenodd" d="M67.168 10.4817H56.219L52.95 0.67575C52.655 -0.22525 51.358 -0.22525 51.064 0.67575L47.797 10.4817H36.85C36.041 10.5377 35.64 11.9247 36.42 12.4787L45.107 18.6797L41.788 28.7177C41.489 29.6187 42.538 30.3657 43.317 29.8077L52.007 23.6067L60.699 29.8067C61.478 30.3657 62.526 29.6187 62.227 28.7167L58.909 18.6797L67.596 12.4787C68.375 11.9247 67.976 10.5377 67.167 10.4817M103.168 10.4817H92.219L88.95 0.67575C88.655 -0.22525 87.358 -0.22525 87.064 0.67575L83.797 10.4817H72.85C72.041 10.5377 71.64 11.9247 72.42 12.4787L81.107 18.6797L77.788 28.7177C77.489 29.6187 78.538 30.3657 79.317 29.8077L88.007 23.6067L96.699 29.8067C97.478 30.3657 98.526 29.6187 98.227 28.7167L94.909 18.6797L103.596 12.4787C104.375 11.9247 103.976 10.5377 103.167 10.4817M139.168 10.4817H128.22L124.951 0.67575C124.656 -0.22525 123.359 -0.22525 123.065 0.67575L119.798 10.4817H108.85C108.041 10.5377 107.64 11.9247 108.42 12.4787L117.107 18.6797L113.788 28.7177C113.489 29.6187 114.538 30.3657 115.317 29.8077L124.007 23.6067L132.699 29.8067C133.478 30.3657 134.526 29.6187 134.227 28.7167L130.909 18.6797L139.596 12.4787C140.375 11.9247 139.976 10.5377 139.167 10.4817M175.168 10.4817H164.22L160.951 0.67575C160.656 -0.22525 159.359 -0.22525 159.065 0.67575L155.798 10.4817H144.85C144.041 10.5377 143.64 11.9247 144.42 12.4787L153.107 18.6797L149.788 28.7177C149.489 29.6187 150.538 30.3657 151.317 29.8077L160.007 23.6067L168.699 29.8067C169.478 30.3657 170.526 29.6187 170.227 28.7167L166.909 18.6797L175.596 12.4787C176.375 11.9247 175.976 10.5377 175.167 10.4817" fill="#334455"/>
</svg>
