<svg width="177" height="30" viewBox="0 0 177 30" fill="none" xmlns="http://www.w3.org/2000/svg">
<path fill-rule="evenodd" clip-rule="evenodd" d="M31.168 10.4817H20.219L16.95 0.67575C16.655 -0.22525 15.358 -0.22525 15.064 0.67575L11.797 10.4817H0.850037C0.0410367 10.5377 -0.359963 11.9247 0.420037 12.4787L9.10704 18.6797L5.78804 28.7177C5.48904 29.6187 6.53804 30.3657 7.31704 29.8077L16.007 23.6067L24.699 29.8067C25.478 30.3657 26.526 29.6187 26.227 28.7167L22.909 18.6797L31.596 12.4787C32.375 11.9247 31.977 10.5377 31.168 10.4817ZM67.167 10.4817H56.219L52.95 0.67575C52.655 -0.22525 51.358 -0.22525 51.064 0.67575L47.797 10.4817H36.85C36.041 10.5377 35.64 11.9247 36.42 12.4787L45.107 18.6797L41.788 28.7177C41.489 29.6187 42.538 30.3657 43.317 29.8077L52.007 23.6067L60.699 29.8067C61.478 30.3657 62.526 29.6187 62.227 28.7167L58.909 18.6797L67.596 12.4787C68.375 11.9247 67.976 10.5377 67.167 10.4817ZM103.167 10.4817H92.219L88.95 0.67575C88.655 -0.22525 87.358 -0.22525 87.064 0.67575L83.797 10.4817H72.85C72.041 10.5377 71.64 11.9247 72.42 12.4787L81.107 18.6797L77.788 28.7177C77.489 29.6187 78.538 30.3657 79.317 29.8077L88.007 23.6067L96.699 29.8067C97.478 30.3657 98.526 29.6187 98.227 28.7167L94.909 18.6797L103.596 12.4787C104.375 11.9247 103.976 10.5377 103.167 10.4817ZM139.167 10.4817H128.219L124.95 0.67575C124.655 -0.22525 123.358 -0.22525 123.064 0.67575L119.797 10.4817H108.849C108.04 10.5377 107.639 11.9247 108.419 12.4787L117.106 18.6797L113.787 28.7177C113.488 29.6187 114.537 30.3657 115.316 29.8077L124.006 23.6067L132.698 29.8067C133.477 30.3657 134.525 29.6187 134.226 28.7167L130.908 18.6797L139.595 12.4787C140.374 11.9247 139.976 10.5377 139.167 10.4817ZM175.166 10.4817H164.218L160.949 0.67575C160.654 -0.22525 159.357 -0.22525 159.063 0.67575L155.796 10.4817H144.848C144.039 10.5377 143.638 11.9247 144.418 12.4787L153.105 18.6797L149.786 28.7177C149.487 29.6187 150.536 30.3657 151.315 29.8077L160.005 23.6067L168.697 29.8067C169.476 30.3657 170.524 29.6187 170.225 28.7167L166.907 18.6797L175.594 12.4787C176.373 11.9247 175.974 10.5377 175.165 10.4817" fill="#00E054"/>
</svg>
