<svg width="35" height="30" viewBox="0 0 35 30" fill="none" xmlns="http://www.w3.org/2000/svg">
<path d="M21.232 27.268C19.2191 28.3562 16.9662 28.9244 14.678 28.921C6.98501 28.921 0.75 22.616 0.75 14.836C0.75 7.056 6.98501 0.75 14.678 0.75C22.371 0.75 28.605 7.055 28.605 14.836L28.601 15.25" stroke="#91A3AC" stroke-width="1.5" stroke-linecap="round" stroke-linejoin="round"/>
<path fill-rule="evenodd" clip-rule="evenodd" d="M15.878 15.9C15.7195 16.0635 15.5301 16.1938 15.3207 16.2833C15.1113 16.3728 14.8863 16.4196 14.6586 16.4212C14.4309 16.4228 14.2052 16.379 13.9946 16.2925C13.784 16.2059 13.5928 16.0782 13.432 15.917C12.765 15.242 12.772 14.136 13.452 13.447C13.6106 13.2839 13.8 13.1539 14.0092 13.0646C14.2185 12.9752 14.4433 12.9282 14.6708 12.9264C14.8983 12.9245 15.1239 12.9678 15.3346 13.0538C15.5452 13.1397 15.7367 13.2665 15.898 13.427C16.566 14.107 16.558 15.213 15.878 15.9Z" fill="#91A3AC"/>
<path d="M7.94299 13.27L14.78 15.043L21.437 8.65503" stroke="#91A3AC" stroke-width="1.5" stroke-linecap="round" stroke-linejoin="round"/>
<path fill-rule="evenodd" clip-rule="evenodd" d="M27.786 19.807H29.016V22.707H31.883V23.95H29.015V26.85H27.786V23.95H24.919V22.707H27.786V19.807ZM22.051 23.329C22.051 26.875 24.894 29.75 28.401 29.75C31.908 29.75 34.75 26.875 34.75 23.329C34.75 19.783 31.907 16.907 28.4 16.907C24.893 16.907 22.051 19.782 22.051 23.329Z" fill="#BBCCDD"/>
</svg>
