<svg width="35" height="30" viewBox="0 0 35 30" fill="none" xmlns="http://www.w3.org/2000/svg">
<path fill-rule="evenodd" clip-rule="evenodd" d="M28.75 14.85C28.75 7.06198 22.483 0.75 14.75 0.75C7.017 0.75 0.75 7.06198 0.75 14.85C0.75 22.638 7.017 28.95 14.75 28.95C16.9676 28.9538 19.1536 28.4245 21.124 27.407C20.4511 26.1611 20.1002 24.7669 20.103 23.351C20.103 18.657 23.883 14.85 28.544 14.85H28.75Z" fill="#40BCF4" stroke="#40BCF4" stroke-width="1.5" stroke-linecap="round" stroke-linejoin="round"/>
<path fill-rule="evenodd" clip-rule="evenodd" d="M15.878 15.9C15.7195 16.0635 15.5301 16.1938 15.3207 16.2833C15.1113 16.3728 14.8863 16.4196 14.6586 16.4212C14.4309 16.4228 14.2052 16.379 13.9946 16.2925C13.784 16.2059 13.5928 16.0782 13.432 15.917C12.765 15.242 12.772 14.136 13.452 13.447C13.6106 13.2839 13.8 13.1539 14.0092 13.0646C14.2185 12.9752 14.4433 12.9282 14.6708 12.9264C14.8983 12.9245 15.1239 12.9678 15.3346 13.0538C15.5452 13.1397 15.7367 13.2665 15.898 13.427C16.566 14.107 16.558 15.213 15.878 15.9Z" fill="#3F4E5A"/>
<path d="M7.94299 13.27L14.78 15.043L21.437 8.65503" stroke="#3F4E5A" stroke-width="1.5" stroke-linecap="round" stroke-linejoin="round"/>
<path fill-rule="evenodd" clip-rule="evenodd" d="M31.883 22.707V23.95H24.919V22.707H31.883ZM28.4 29.75C31.906 29.75 34.749 26.875 34.749 23.329C34.749 19.783 31.906 16.907 28.399 16.907C24.892 16.907 22.05 19.782 22.05 23.329C22.05 26.876 24.893 29.75 28.4 29.75Z" fill="#BBCCDD"/>
</svg>
